<?xml version="1.0" standalone="no"?>
<!DOCTYPE svg PUBLIC "-//W3C//DTD SVG 20010904//EN"
 "http://www.w3.org/TR/2001/REC-SVG-20010904/DTD/svg10.dtd">
<svg version="1.0" xmlns="http://www.w3.org/2000/svg"
 width="88.000000pt" height="56.000000pt" viewBox="0 0 88.000000 56.000000"
 preserveAspectRatio="xMidYMid meet">

<g transform="translate(0.000000,56.000000) scale(0.100000,-0.100000)"
fill="#ffffff" stroke="none">
<path d="M179 401 c-20 -20 -29 -39 -29 -61 0 -43 47 -90 90 -90 43 0 90 47
90 90 0 43 -47 90 -90 90 -22 0 -41 -9 -61 -29z"/>
<path d="M599 401 c-20 -20 -29 -39 -29 -61 0 -43 47 -90 90 -90 43 0 90 47
90 90 0 22 -9 41 -29 61 -20 20 -39 29 -61 29 -22 0 -41 -9 -61 -29z"/>
<path d="M385 329 c-8 -12 44 -100 62 -106 14 -5 75 85 70 102 -7 21 -37 16
-48 -9 -15 -32 -23 -33 -37 -1 -12 26 -36 33 -47 14z"/>
<path d="M124 196 c-23 -19 -28 -32 -28 -72 l-1 -49 145 0 145 0 -1 49 c0 40
-5 53 -28 72 -24 21 -37 24 -116 24 -79 0 -92 -3 -116 -24z"/>
<path d="M539 190 c-26 -25 -30 -36 -27 -72 l3 -43 145 0 145 0 3 43 c3 36 -1
47 -27 72 -28 29 -33 30 -121 30 -88 0 -93 -1 -121 -30z"/>
</g>
</svg>
